<svg id="Icons" xmlns="http://www.w3.org/2000/svg" viewBox="0 0 128 128"><defs><style>.cls-1{fill:#323232;}</style></defs><path class="cls-1" d="M64.84,33.45V19.75L12.16,44v79h104.3V5ZM75.69,120H52.93V88H75.69Zm37.77,0H78.69V85H49.93v35H15.16V47.88h98.3Zm0-75.12H17.38L61.84,24.43V38.52l4.45-2.45,47.17-26Z"/><path class="cls-1" d="M45.56,55h-23V78h23Zm-3,20h-17V58h17Z"/><path class="cls-1" d="M75.81,55h-23V78h23Zm-3,20h-17V58h17Z"/><path class="cls-1" d="M106.06,55h-23V78h23Zm-3,20h-17V58h17Z"/></svg>