<svg id="Icons" xmlns="http://www.w3.org/2000/svg" viewBox="0 0 128 128"><defs><style>.cls-1{fill:#a8e58f;}.cls-2{fill:#fff;}.cls-3{fill:#787878;}</style></defs><circle class="cls-1" cx="87.76" cy="83.48" r="25.48"/><polygon class="cls-2" points="100.72 81.32 89.92 81.32 89.92 70.52 85.61 70.52 85.61 81.32 74.81 81.32 74.81 85.64 85.61 85.64 85.61 96.44 89.92 96.44 89.92 85.64 100.72 85.64 100.72 81.32"/><path class="cls-3" d="M86.14,41.4H32.38v-16H86.14Zm-50.76-3H83.14v-10H35.38Z"/><path class="cls-3" d="M67.89,60.4H35.38v-10H83.14v3c1-.15,2-.25,3-.31V47.4H32.38v16H64.86A31.77,31.77,0,0,1,67.89,60.4Z"/><path class="cls-3" d="M100.76,111.05v9h-83V8h83V55.91a31.12,31.12,0,0,1,3,1.64V5h-89V123h89V109.41A31.12,31.12,0,0,1,100.76,111.05Z"/></svg>