<svg id="Icons" xmlns="http://www.w3.org/2000/svg" viewBox="0 0 128 128"><defs><style>.cls-1{fill:#323232;}</style></defs><path class="cls-1" d="M72.2,122.5H55.8L54,110.5a47.05,47.05,0,0,1-15.85-6.56l-9.74,7.23-11.6-11.6,7.23-9.74A47.05,47.05,0,0,1,17.5,74L5.5,72.2V55.8L17.5,54a47.05,47.05,0,0,1,6.56-15.85l-7.23-9.74,11.6-11.6,9.74,7.23A47.05,47.05,0,0,1,54,17.5l1.78-12H72.2L74,17.5a47.05,47.05,0,0,1,15.85,6.56l9.74-7.23,11.6,11.6-7.23,9.74A47.05,47.05,0,0,1,110.5,54l12,1.78V72.2L110.5,74a47.05,47.05,0,0,1-6.56,15.85l7.23,9.74-11.6,11.6-9.74-7.23A47.05,47.05,0,0,1,74,110.5Zm-13.82-3H69.62L71.32,108l1.05-.2A44.1,44.1,0,0,0,89,100.87l.88-.6,9.36,6.94,7.94-7.94-6.94-9.36.6-.88a44.1,44.1,0,0,0,6.89-16.66l.2-1.05,11.54-1.7V58.38L108,56.68l-.2-1A44.1,44.1,0,0,0,100.87,39l-.6-.88,6.94-9.36-7.94-7.94-9.36,6.94-.88-.6a44.1,44.1,0,0,0-16.66-6.89L71.32,20,69.62,8.5H58.38L56.68,20l-1,.2A44.1,44.1,0,0,0,39,27.13l-.88.6-9.36-6.94-7.94,7.94,6.94,9.36-.6.88a44.1,44.1,0,0,0-6.89,16.66l-.2,1L8.5,58.38V69.62L20,71.32l.2,1.05A44.1,44.1,0,0,0,27.13,89l.6.88-6.94,9.36,7.94,7.94,9.36-6.94.88.6a44.1,44.1,0,0,0,16.66,6.89l1,.2Z"/><path class="cls-1" d="M64,35.91A28.09,28.09,0,1,1,35.91,64,28.12,28.12,0,0,1,64,35.91m0-3A31.09,31.09,0,1,0,95.09,64,31.09,31.09,0,0,0,64,32.91Z"/></svg>