<svg id="Icons" xmlns="http://www.w3.org/2000/svg" viewBox="0 0 128 128"><defs><style>.cls-1{fill:#a8e58f;}.cls-2{fill:#787878;}</style></defs><rect class="cls-1" x="62.26" y="48.14" width="60.72" height="22.44"/><rect class="cls-1" x="10.72" y="94.31" width="60.72" height="22.44"/><path class="cls-2" d="M86,29.5V43.14h3V29.5c9.73-.46,17.15-5.28,17.15-11.37,0-6.41-8.2-11.42-18.67-11.42s-18.68,5-18.68,11.42C68.78,24.23,76.23,29.06,86,29.5ZM87.46,9.71c8.49,0,15.67,3.85,15.67,8.42S96,26.55,87.46,26.55s-15.68-3.86-15.68-8.42S79,9.71,87.46,9.71Z"/><path class="cls-2" d="M57.26,59.48H42.19c-1.17-5.67-8.86-9.92-18.5-9.92C13.22,49.56,5,54.58,5,61S13.22,72.4,23.69,72.4c9.64,0,17.33-4.25,18.5-9.92H57.26ZM23.69,69.4C15.2,69.4,8,65.54,8,61s7.18-8.42,15.67-8.42S39.36,56.42,39.36,61,32.19,69.4,23.69,69.4Z"/><path class="cls-2" d="M109.2,75.58h-3v16.5L93.87,104.42H76.44v3H93.77l13.88,13.87L123,106,109.2,92.18ZM118.74,106l-11.09,11.09L96.56,106l11.09-11.09Z"/></svg>