<svg id="Icons" xmlns="http://www.w3.org/2000/svg" viewBox="0 0 128 128"><defs><style>.cls-1{fill:#787878;}.cls-2{fill:#a8e58f;}</style></defs><path class="cls-1" d="M123.31,107.5H4.69v-87H123.31Zm-115.62-3H120.31v-81H7.69Z"/><rect class="cls-1" x="13.11" y="33.35" width="101.79" height="3"/><circle class="cls-2" cx="15.58" cy="28.42" r="1.98"/><circle class="cls-2" cx="22.49" cy="28.42" r="1.98"/><circle class="cls-2" cx="29.41" cy="28.42" r="1.98"/><path class="cls-2" d="M92.44,75.44v-9l-5.81-.86a23.09,23.09,0,0,0-2.82-6.81L87.31,54l-6.4-6.4-4.72,3.5a22.87,22.87,0,0,0-6.81-2.82l-.86-5.81h-9l-.86,5.81a22.87,22.87,0,0,0-6.81,2.82l-4.72-3.5L40.69,54l3.5,4.71a23.09,23.09,0,0,0-2.82,6.81l-5.81.86v9l5.81.86a23,23,0,0,0,2.82,6.81l-3.5,4.72,6.4,6.39,4.72-3.49a23,23,0,0,0,6.81,2.81l.86,5.82h9l.86-5.82a23,23,0,0,0,6.81-2.81l4.72,3.49,6.4-6.39-3.5-4.72a23,23,0,0,0,2.82-6.81ZM64,83.27A12.36,12.36,0,1,1,76.35,70.92,12.35,12.35,0,0,1,64,83.27Z"/></svg>