<svg id="Icons" xmlns="http://www.w3.org/2000/svg" viewBox="0 0 128 128"><defs><style>.cls-1{fill:#c8c8c8;}.cls-2{fill:#fff;}.cls-3{fill:#73b450;}</style></defs><rect class="cls-1" x="5" y="20.5" width="118" height="87"/><circle class="cls-2" cx="11.58" cy="26.42" r="1.98"/><circle class="cls-2" cx="18.49" cy="26.42" r="1.98"/><circle class="cls-2" cx="25.41" cy="26.42" r="1.98"/><path class="cls-3" d="M100.92,69.87V58.13L93.37,57a29.69,29.69,0,0,0-3.66-8.84l4.55-6.12L86,33.74l-6.12,4.55A29.8,29.8,0,0,0,71,34.63l-1.12-7.55H58.13L57,34.63a29.8,29.8,0,0,0-8.84,3.66l-6.12-4.55-8.31,8.31,4.55,6.12A29.69,29.69,0,0,0,34.63,57l-7.55,1.12V69.87L34.63,71a29.8,29.8,0,0,0,3.66,8.84L33.74,86l8.31,8.31,6.12-4.55A29.91,29.91,0,0,0,57,93.37l1.12,7.55H69.87L71,93.37a29.91,29.91,0,0,0,8.84-3.66L86,94.26,94.26,86l-4.55-6.12A29.8,29.8,0,0,0,93.37,71ZM64,80A16,16,0,1,1,80,64,16,16,0,0,1,64,80Z"/></svg>