<svg id="Icons" xmlns="http://www.w3.org/2000/svg" viewBox="0 0 128 128"><defs><style>.cls-1{fill:#787878;}</style></defs><path class="cls-1" d="M31.07,73.57A9.57,9.57,0,1,1,40.64,64,9.58,9.58,0,0,1,31.07,73.57Zm0-16.14A6.57,6.57,0,1,0,37.64,64,6.58,6.58,0,0,0,31.07,57.43Z"/><path class="cls-1" d="M63.93,73.57A9.57,9.57,0,1,1,73.5,64,9.58,9.58,0,0,1,63.93,73.57Zm0-16.14A6.57,6.57,0,1,0,70.5,64,6.58,6.58,0,0,0,63.93,57.43Z"/><path class="cls-1" d="M96.93,73.57A9.57,9.57,0,1,1,106.5,64,9.58,9.58,0,0,1,96.93,73.57Zm0-16.14A6.57,6.57,0,1,0,103.5,64,6.57,6.57,0,0,0,96.93,57.43Z"/></svg>