<svg id="Icons" xmlns="http://www.w3.org/2000/svg" viewBox="0 0 128 128"><defs><style>.cls-1{fill:#a8e58f;}</style></defs><path class="cls-1" d="M105.85,10.58a15.13,15.13,0,0,0-23.11-.44S74.86,19,73,34.76a73.65,73.65,0,0,0,2.73,28.92,2.5,2.5,0,0,0,1.88,2s16.42,3.92,18.75,4.57c2.49.68,3.59-.49,3.59-.49s7.11-5.53,10.18-27.91S105.85,10.58,105.85,10.58Z"/><path class="cls-1" d="M71.26,95.51s4.44,9.48,14.52,4.54S97.05,75.48,97.05,75.48L75.7,70C65.65,84.06,71.26,95.51,71.26,95.51Z"/><path class="cls-1" d="M50.32,87.22a2.55,2.55,0,0,0,1.89-2,73.86,73.86,0,0,0,2.73-28.92c-1.83-15.79-9.71-24.61-9.71-24.61a15.11,15.11,0,0,0-23.11.44S14.75,41,17.81,63.38,28,91.29,28,91.29s1.09,1.17,3.59.5C33.91,91.14,50.32,87.22,50.32,87.22Z"/><path class="cls-1" d="M52.27,91.52,30.92,97.29s1.2,19.4,11.27,24.33,14.51-4.55,14.51-4.55S62.32,105.62,52.27,91.52Z"/></svg>