<svg id="Icons" xmlns="http://www.w3.org/2000/svg" viewBox="0 0 128 128"><defs><style>.cls-1{fill:#323232;}</style></defs><path class="cls-1" d="M64,5a59,59,0,1,0,59,59A59,59,0,0,0,64,5Zm0,115c-6.92,0-14.44-13.65-17.54-35A153.34,153.34,0,0,0,64,86a153.34,153.34,0,0,0,17.54-1C78.44,106.35,70.92,120,64,120Zm0-37a150.08,150.08,0,0,1-18-1,154,154,0,0,1,0-35.9,154,154,0,0,1,35.9,0,150.08,150.08,0,0,1,1,18,150.08,150.08,0,0,1-1,18A150.08,150.08,0,0,1,64,83ZM43,81.54C21.65,78.44,8,70.92,8,64S21.65,49.56,43,46.46a155.87,155.87,0,0,0,0,35.08ZM64,8c6.92,0,14.44,13.65,17.54,35a155.87,155.87,0,0,0-35.08,0C49.56,21.65,57.08,8,64,8ZM85,46.46c21.34,3.1,35,10.62,35,17.54S106.35,78.44,85,81.54A153.34,153.34,0,0,0,86,64,153.34,153.34,0,0,0,85,46.46Zm34.47,10c-5.88-6.06-18.69-10.88-34.86-13.13-2.25-16.17-7.07-29-13.13-34.86A56.07,56.07,0,0,1,119.48,56.51Zm-63-48C50.45,14.4,45.63,27.21,43.38,43.38c-16.17,2.25-29,7.07-34.86,13.13A56.07,56.07,0,0,1,56.51,8.52Zm-48,63c5.88,6.06,18.69,10.88,34.86,13.13,2.25,16.17,7.07,29,13.13,34.86A56.07,56.07,0,0,1,8.52,71.49Zm63,48c6.06-5.88,10.88-18.69,13.13-34.86,16.17-2.25,29-7.07,34.86-13.13A56.07,56.07,0,0,1,71.49,119.48Z"/></svg>