<svg id="Icons" xmlns="http://www.w3.org/2000/svg" viewBox="0 0 128 128"><defs><style>.cls-1{fill:#a8e58f;fill-rule:evenodd;}.cls-2{fill:#787878;}</style></defs><path class="cls-1" d="M82.31,25.79l-1.09,1.66.25,1.76,3.27-.35.88-2.39Z"/><path class="cls-1" d="M87.62,22.93l0,5.49-1.35,2.07.06,2.17,4-1.77,1.29-4-1.34-4.31-2.69.31Z"/><path class="cls-1" d="M95.25,30.43c1.33,5-8.08-.52-10.52,10.73A12.07,12.07,0,0,0,85.8,43.1l6,.06,3.61-4.65,3.3-1.13,4,2.93.58,1.26-1.17,1.58,3-.17-.49-5.73,5,9.4,7.08-1.24A56.1,56.1,0,0,0,100,21.27C98.23,21.78,93.92,23.74,95.25,30.43Z"/><path class="cls-1" d="M95.72,45.51l-11.38.15L81.92,50.6l-4.43,8.3,1.73,8.23,17.28,3,2.6,8.68L99,88.11l5.64,13.4s5.62-2.5,9-22.4a37.4,37.4,0,0,0,6.26-16.91,55.77,55.77,0,0,0-2-13.32l-13.59-.3Z"/><path class="cls-1" d="M38.43,64c.5,0-2.22,13.48-2.22,13.48l8.11,3.86,3.87,19.24,6.74,6-1-8.06L68.6,71.56S55.32,55.5,40.69,60.5c0,.17-12.87-6.39-12.87-6.39s-1.15-4.3.88-6.13c3.05-2.75,4.91-.37,10.19,1.9h0l9.7-14.1s5.54-1.8,11.29-4.29c.4-.17,6.12-6.68,3.56-11a2.88,2.88,0,0,1-.13-.31C45.43,16.06,36.15,17,32.59,17.76A56.22,56.22,0,0,0,13.45,40.12c-.14.39-.28.78-.4,1.17C8.75,54.89,37.92,63.93,38.43,64Z"/><path class="cls-2" d="M64,122.92A58.92,58.92,0,1,1,122.92,64,59,59,0,0,1,64,122.92ZM64,8.08A55.92,55.92,0,1,0,119.92,64,56,56,0,0,0,64,8.08Z"/></svg>